<svg id="Layer_1" data-name="Layer 1" xmlns="http://www.w3.org/2000/svg" viewBox="0 0 349.81 285.85"><defs><style>.cls-1{fill:#fbb969;}.cls-2{fill:#54c2bb;}.cls-3{fill:#f9f9f9;}.cls-4{fill:#fcfcfc;}.cls-5{fill:#f9f7f8;}.cls-6{fill:#fcfafb;}</style></defs><title>popDark</title><g id="_Group_" data-name="&lt;Group&gt;"><path id="_Path_" data-name="&lt;Path&gt;" class="cls-1" d="M603.37,364.79l32.18-107q-4.26,53.29-5.47,106.78a391.49,391.49,0,0,1,108.49-41.69,504.22,504.22,0,0,1-83.72,55.73L780,451.23a940.38,940.38,0,0,1-128.65-27.84q3.08,54.24,10.65,108.12l-55.83-75.05a652.49,652.49,0,0,1-103,59.63q32.1-40.5,67.28-78.44L437.83,400.81l125.45,11q-43.46-41.52-88.49-81.37Q527.11,358.81,581,384.11a310.2,310.2,0,0,1-41.14-112.67,419.94,419.94,0,0,1,67.64,89" transform="translate(-437.83 -253.15)"/><path id="_Path_2" data-name="&lt;Path&gt;" class="cls-2" d="M593.45,364.93l-.7-111.78q11.6,52.2,26.16,103.68a391.32,391.32,0,0,1,91.44-71.72A504.67,504.67,0,0,1,646.71,363l140.93,32.69a941.29,941.29,0,0,1-131.15,11.19q18.87,50.94,41.94,100.21L623,451.74A652.2,652.2,0,0,1,542.09,539q18.78-48.15,41.26-94.74L445.79,448l123.15-26.33q-53.73-26.93-108.49-51.79Q518.8,381.62,577.76,390a310,310,0,0,1-72.43-95.61,420.36,420.36,0,0,1,90.81,65.19" transform="translate(-437.83 -253.15)"/><path id="_Path_3" data-name="&lt;Path&gt;" class="cls-3" d="M565.94,361.21c-4.83,0-1.61-37.33-1-41,.95-5.7,1.93-11.49,4.53-16.64,4-8,10.69-10.64,19-12a122.83,122.83,0,0,1,42.63.75,34.5,34.5,0,0,1,9.32,2.89c7.67,4,11.1,12.28,12,20.11.46,4.05.31,8.42-2.28,11.79s-8.33,5.05-11.95,2.54c-2.92-2-3.35-5.7-3.91-8.94-1.06-6.12-3.92-12.63-10.16-15.45a25.94,25.94,0,0,0-9.35-1.82,84.17,84.17,0,0,0-15.39.66,19.57,19.57,0,0,0-5.87,1.49c-4.58,2.19-6.58,7-7.64,11.52-3.41,14.49-1.06,29.56-3,44.27Z" transform="translate(-437.83 -253.15)"/><g id="_Group_2" data-name="&lt;Group&gt;"><rect class="cls-4" x="108.09" y="93.44" width="123.7" height="21.44"/></g><g id="_Group_3" data-name="&lt;Group&gt;"><rect class="cls-4" x="108.09" y="121.48" width="123.7" height="21.44"/></g><g id="_Group_4" data-name="&lt;Group&gt;"><rect class="cls-5" x="108.09" y="176.74" width="123.7" height="21.44"/></g><g id="_Group_5" data-name="&lt;Group&gt;"><rect class="cls-3" x="108.09" y="202.52" width="123.7" height="21.44"/></g><g id="_Group_6" data-name="&lt;Group&gt;"><rect class="cls-6" x="108.09" y="149.52" width="123.7" height="21.44"/></g><path id="_Path_4" data-name="&lt;Path&gt;" class="cls-2" d="M586.14,447.65l14.46-33.86a19.22,19.22,0,0,1-10.89-17.16c0-10.66,9-19.29,20.07-19.29s20.07,8.63,20.07,19.29A19.26,19.26,0,0,1,618,414.22l14.28,33.43Z" transform="translate(-437.83 -253.15)"/></g></svg>