<?xml version="1.0" encoding="utf-8"?>
<!-- Generator: Adobe Illustrator 19.0.0, SVG Export Plug-In . SVG Version: 6.00 Build 0)  -->
<svg version="1.1" id="Layer_1" xmlns="http://www.w3.org/2000/svg" xmlns:xlink="http://www.w3.org/1999/xlink" x="0px" y="0px"
	 viewBox="0 0 1224 792" style="enable-background:new 0 0 1224 792;" xml:space="preserve">
<style type="text/css">
	.st0{fill:#FCBA68;}
	.st1{fill:#55C3BC;}
	.st2{fill:#FDFEFE;}
	.st3{fill:#FCFAFC;}
	.st4{fill:#F9F9FA;}
	.st5{fill:#F8F7F8;}
	.st6{fill:none;}
	.st7{font-family:'GooseberryJuice';}
	.st8{font-size:80px;}
	.st9{font-family:'HBM-Serenity-Light';}
	.st10{font-size:77.8023px;}
	.st11{fill:#FFFFFF;}
	.st12{font-family:'CaviarDreams-Bold';}
	.st13{font-size:46.2508px;}
</style>
<g id="XMLID_1_">
	<g id="XMLID_2_">
		<path id="XMLID_6_" class="st0" d="M442.3,375.7c7-23.2,13.9-46.3,20.9-69.5c-1.8,23.1-3,46.2-3.5,69.3
			c21.9-12.5,45.8-21.6,70.4-27.1c-16.8,13.8-35.1,26-54.4,36.2c27.1,15.7,54.2,31.5,81.2,47.2c-28.2-4.1-56.2-10.1-83.5-18.1
			c1.3,23.5,3.6,46.9,6.9,70.2c-12.1-16.2-24.2-32.5-36.3-48.7c-21,14.9-43.5,27.9-66.9,38.7c13.9-17.5,28.5-34.5,43.7-50.9
			c-28.7-8-57.4-16-86.1-23.9c27.2,2.4,54.3,4.8,81.5,7.1c-18.8-18-38-35.6-57.5-52.8c22.7,12.3,45.7,23.9,69,34.9
			c-13.6-22.4-22.7-47.4-26.7-73.2c17.1,17.2,32,36.7,43.9,57.8"/>
		<path id="XMLID_5_" class="st1" d="M435.9,375.7c-0.2-24.2-0.3-48.4-0.5-72.6c5,22.6,10.7,45.1,17,67.3
			c17.3-18.4,37.4-34.1,59.4-46.6c-12,18.2-25.9,35.1-41.3,50.6c30.5,7.1,61,14.2,91.5,21.2c-28.2,4.4-56.7,6.8-85.2,7.3
			c8.2,22.1,17.3,43.8,27.2,65.1c-16.3-12-32.7-24-49-35.9c-15.7,20.4-33.4,39.4-52.6,56.7c8.1-20.8,17.1-41.4,26.8-61.5
			c-29.8,0.8-59.6,1.6-89.3,2.4c26.7-5.7,53.3-11.4,80-17.1c-23.3-11.7-46.8-22.9-70.5-33.6c25.3,5.1,50.7,9.4,76.2,13
			c-19.5-17.4-35.6-38.6-47-62.1c21.4,11.4,41.3,25.7,59,42.3"/>
		<path id="XMLID_43_" class="st2" d="M418,373.3c-3.1,0-1-24.2-0.6-26.7c0.6-3.7,1.3-7.5,2.9-10.8c2.6-5.2,6.9-6.9,12.4-7.8
			c9.1-1.5,18.6-1.3,27.7,0.5c2.1,0.4,4.2,0.9,6.1,1.9c5,2.6,7.2,8,7.8,13.1c0.3,2.6,0.2,5.5-1.5,7.7c-1.7,2.2-5.4,3.3-7.8,1.7
			c-1.9-1.3-2.2-3.7-2.5-5.8c-0.7-4-2.5-8.2-6.6-10c-1.9-0.8-4-1.1-6.1-1.2c-3.3-0.2-6.7,0-10,0.4c-1.3,0.2-2.6,0.4-3.8,1
			c-3,1.4-4.3,4.6-5,7.5c-2.2,9.4-0.7,19.2-1.9,28.7C425.4,373.4,421.7,373.4,418,373.3z"/>
		<g id="XMLID_20_">
			<rect id="XMLID_4_" x="405" y="363.8" class="st2" width="80.3" height="13.9"/>
		</g>
		<g id="XMLID_3_">
			<rect id="XMLID_7_" x="405" y="382" class="st3" width="80.3" height="13.9"/>
		</g>
		<g id="XMLID_8_">
			<rect id="XMLID_9_" x="405" y="417.9" class="st4" width="80.3" height="13.9"/>
		</g>
		<g id="XMLID_10_">
			<rect id="XMLID_11_" x="405" y="435" class="st5" width="80.3" height="13.9"/>
		</g>
		<g id="XMLID_18_">
			<rect id="XMLID_15_" x="405" y="400.3" class="st5" width="80.3" height="13.9"/>
		</g>
		<path id="XMLID_37_" class="st1" d="M431.1,429.5l9.4-22c-4.2-2.1-7.1-6.3-7.1-11.1c0-6.9,5.8-12.5,13-12.5s13,5.6,13,12.5
			c0,5.1-3.1,9.5-7.7,11.4l9.3,21.7H431.1z"/>
	</g>
	<rect id="XMLID_30_" x="570.5" y="351.5" class="st6" width="167" height="74.9"/>
	<text id="XMLID_19_" transform="matrix(1 0 0 1 570.5 408.1029)" class="st4 st7 st8">POP</text>
	<text id="XMLID_21_" transform="matrix(1.0925 0 0 1 726 406.6325)" class="st2 st9 st10">&amp; LOCK</text>
	<text id="XMLID_22_" transform="matrix(1.1872 0 0 1 571.5576 450.598)" class="st11 st12 st13">the STACK</text>
</g>
</svg>
