<?xml version="1.0" encoding="UTF-8" standalone="no"?>
<!-- Generator: Adobe Illustrator 19.0.0, SVG Export Plug-In . SVG Version: 6.00 Build 0)  -->

<svg
   xmlns:dc="http://purl.org/dc/elements/1.1/"
   xmlns:cc="http://creativecommons.org/ns#"
   xmlns:rdf="http://www.w3.org/1999/02/22-rdf-syntax-ns#"
   xmlns:svg="http://www.w3.org/2000/svg"
   xmlns="http://www.w3.org/2000/svg"
   xmlns:sodipodi="http://sodipodi.sourceforge.net/DTD/sodipodi-0.dtd"
   xmlns:inkscape="http://www.inkscape.org/namespaces/inkscape"
   version="1.1"
   id="Layer_1"
   x="0px"
   y="0px"
   viewBox="0 0 712.78552 185.7"
   xml:space="preserve"
   sodipodi:docname="wordsDark2.svg"
   width="712.78552"
   height="185.7"
   inkscape:version="0.92.2 2405546, 2018-03-11"><metadata
   id="metadata3867"><rdf:RDF><cc:Work
       rdf:about=""><dc:format>image/svg+xml</dc:format><dc:type
         rdf:resource="http://purl.org/dc/dcmitype/StillImage" /><dc:title></dc:title></cc:Work></rdf:RDF></metadata><defs
   id="defs3865" /><sodipodi:namedview
   pagecolor="#ffffff"
   bordercolor="#666666"
   borderopacity="1"
   objecttolerance="10"
   gridtolerance="10"
   guidetolerance="10"
   inkscape:pageopacity="0"
   inkscape:pageshadow="2"
   inkscape:window-width="2558"
   inkscape:window-height="1403"
   id="namedview3863"
   showgrid="true"
   inkscape:zoom="1.4886364"
   inkscape:cx="300.72122"
   inkscape:cy="64.311189"
   inkscape:window-x="0"
   inkscape:window-y="2135"
   inkscape:window-maximized="0"
   inkscape:current-layer="Layer_1"
   inkscape:pagecheckerboard="true"
   inkscape:snap-grids="false"
   inkscape:snap-to-guides="false"
   fit-margin-top="0"
   fit-margin-left="0"
   fit-margin-right="0"
   fit-margin-bottom="0" />
<style
   type="text/css"
   id="style3840">
	.st0{fill:#FCBA68;}
	.st1{fill:#55C3BC;}
	.st2{fill:#FDFEFE;}
	.st3{fill:#FCFAFC;}
	.st4{fill:#F9F9FA;}
	.st5{fill:#F8F7F8;}
	.st6{fill:none;}
	.st7{font-family:'GooseberryJuice';}
	.st8{font-size:80px;}
	.st9{font-family:'HBM-Serenity-Light';}
	.st10{font-size:77.8023px;}
	.st11{fill:#FFFFFF;}
	.st12{font-family:'CaviarDreams-Bold';}
	.st13{font-size:46.2508px;}
</style>
<g
   id="XMLID_1_"
   transform="translate(-334.7,-303.1)">
	<g
   id="XMLID_2_">
		<path
   id="XMLID_6_"
   class="st0"
   d="m 442.3,375.7 c 7,-23.2 13.9,-46.3 20.9,-69.5 -1.8,23.1 -3,46.2 -3.5,69.3 21.9,-12.5 45.8,-21.6 70.4,-27.1 -16.8,13.8 -35.1,26 -54.4,36.2 27.1,15.7 54.2,31.5 81.2,47.2 -28.2,-4.1 -56.2,-10.1 -83.5,-18.1 1.3,23.5 3.6,46.9 6.9,70.2 -12.1,-16.2 -24.2,-32.5 -36.3,-48.7 -21,14.9 -43.5,27.9 -66.9,38.7 13.9,-17.5 28.5,-34.5 43.7,-50.9 -28.7,-8 -57.4,-16 -86.1,-23.9 27.2,2.4 54.3,4.8 81.5,7.1 -18.8,-18 -38,-35.6 -57.5,-52.8 22.7,12.3 45.7,23.9 69,34.9 -13.6,-22.4 -22.7,-47.4 -26.7,-73.2 17.1,17.2 32,36.7 43.9,57.8"
   inkscape:connector-curvature="0"
   style="fill:#fcba68" />
		<path
   id="XMLID_5_"
   class="st1"
   d="m 435.9,375.7 c -0.2,-24.2 -0.3,-48.4 -0.5,-72.6 5,22.6 10.7,45.1 17,67.3 17.3,-18.4 37.4,-34.1 59.4,-46.6 -12,18.2 -25.9,35.1 -41.3,50.6 30.5,7.1 61,14.2 91.5,21.2 -28.2,4.4 -56.7,6.8 -85.2,7.3 8.2,22.1 17.3,43.8 27.2,65.1 -16.3,-12 -32.7,-24 -49,-35.9 -15.7,20.4 -33.4,39.4 -52.6,56.7 8.1,-20.8 17.1,-41.4 26.8,-61.5 -29.8,0.8 -59.6,1.6 -89.3,2.4 26.7,-5.7 53.3,-11.4 80,-17.1 -23.3,-11.7 -46.8,-22.9 -70.5,-33.6 25.3,5.1 50.7,9.4 76.2,13 -19.5,-17.4 -35.6,-38.6 -47,-62.1 21.4,11.4 41.3,25.7 59,42.3"
   inkscape:connector-curvature="0"
   style="fill:#55c3bc" />
		<path
   id="XMLID_43_"
   class="st2"
   d="m 418,373.3 c -3.1,0 -1,-24.2 -0.6,-26.7 0.6,-3.7 1.3,-7.5 2.9,-10.8 2.6,-5.2 6.9,-6.9 12.4,-7.8 9.1,-1.5 18.6,-1.3 27.7,0.5 2.1,0.4 4.2,0.9 6.1,1.9 5,2.6 7.2,8 7.8,13.1 0.3,2.6 0.2,5.5 -1.5,7.7 -1.7,2.2 -5.4,3.3 -7.8,1.7 -1.9,-1.3 -2.2,-3.7 -2.5,-5.8 -0.7,-4 -2.5,-8.2 -6.6,-10 -1.9,-0.8 -4,-1.1 -6.1,-1.2 -3.3,-0.2 -6.7,0 -10,0.4 -1.3,0.2 -2.6,0.4 -3.8,1 -3,1.4 -4.3,4.6 -5,7.5 -2.2,9.4 -0.7,19.2 -1.9,28.7 -3.7,-0.1 -7.4,-0.1 -11.1,-0.2 z"
   inkscape:connector-curvature="0"
   style="fill:#fdfefe" />
		<g
   id="XMLID_20_">
			<rect
   id="XMLID_4_"
   x="405"
   y="363.79999"
   class="st2"
   width="80.300003"
   height="13.9"
   style="fill:#fdfefe" />
		</g>
		<g
   id="XMLID_3_">
			<rect
   id="XMLID_7_"
   x="405"
   y="382"
   class="st3"
   width="80.300003"
   height="13.9"
   style="fill:#fcfafc" />
		</g>
		<g
   id="XMLID_8_">
			<rect
   id="XMLID_9_"
   x="405"
   y="417.89999"
   class="st4"
   width="80.300003"
   height="13.9"
   style="fill:#f9f9fa" />
		</g>
		<g
   id="XMLID_10_">
			<rect
   id="XMLID_11_"
   x="405"
   y="435"
   class="st5"
   width="80.300003"
   height="13.9"
   style="fill:#f8f7f8" />
		</g>
		<g
   id="XMLID_18_">
			<rect
   id="XMLID_15_"
   x="405"
   y="400.29999"
   class="st5"
   width="80.300003"
   height="13.9"
   style="fill:#f8f7f8" />
		</g>
		<path
   id="XMLID_37_"
   class="st1"
   d="m 431.1,429.5 9.4,-22 c -4.2,-2.1 -7.1,-6.3 -7.1,-11.1 0,-6.9 5.8,-12.5 13,-12.5 7.2,0 13,5.6 13,12.5 0,5.1 -3.1,9.5 -7.7,11.4 l 9.3,21.7 z"
   inkscape:connector-curvature="0"
   style="fill:#55c3bc" />
	</g>
	<rect
   id="XMLID_30_"
   x="570.5"
   y="351.5"
   class="st6"
   width="167"
   height="74.900002"
   style="fill:none" />
	<text
   id="XMLID_19_"
   transform="translate(570.5,408.1029)"
   class="st4 st7 st8"
   style="font-size:80px;font-family:GooseberryJuice;fill:#f9f9fa">POP</text>

	<text
   id="XMLID_21_"
   transform="matrix(1.0925,0,0,1,726,406.6325)"
   class="st2 st9 st10"
   style="font-size:77.8022995px;font-family:HBM-Serenity-Light;fill:#fdfefe">&amp; LOCK</text>

	<text
   id="XMLID_22_"
   transform="matrix(1.1872,0,0,1,571.5576,450.598)"
   class="st11 st12 st13"
   style="font-size:46.25080109px;font-family:CaviarDreams-Bold;fill:#ffffff">the STACK</text>

</g>
</svg>